<?xml version="1.0" encoding="UTF-8"?>
<svg version="1.1" xmlns="http://www.w3.org/2000/svg" width="500" height="500">
<path d="M0 0 C2.01880068 0.00560909 4.03760549 0.00987296 6.05641174 0.01286316 C11.31873242 0.02420869 16.58079679 0.05358486 21.84301758 0.0869751 C27.23320043 0.11790037 32.6234255 0.13141605 38.01367188 0.14648438 C48.55219471 0.17846639 59.090529 0.2295351 69.62890625 0.29296875 C69.06813904 8.34010903 68.11869613 16.23053401 66.78125 24.18359375 C66.51701988 25.789534 66.51701988 25.789534 66.24745178 27.42791748 C65.69154111 30.80035278 65.12909592 34.17165863 64.56640625 37.54296875 C64.18511151 39.84888639 63.80424826 42.15487541 63.42382812 44.4609375 C62.49716722 50.07244845 61.56515934 55.68305067 60.62890625 61.29296875 C59.21189171 61.30176811 59.21189171 61.30176811 57.76625061 61.31074524 C48.83619054 61.36811452 39.90637067 61.44094966 30.97655582 61.52868366 C26.38632548 61.57329146 21.79618193 61.61256841 17.20581055 61.6394043 C12.77063081 61.66553337 8.3357868 61.70600279 3.90081596 61.75615501 C2.2141076 61.77275906 0.52734126 61.78431339 -1.15943718 61.79058266 C-11.19552443 61.83163671 -19.87319746 61.86975031 -28.68359375 67.35546875 C-35.84610284 75.18425776 -36.60140349 86.18962714 -38.05859375 96.29296875 C-38.37471094 98.41694881 -38.69424111 100.54035604 -39.01704407 102.66333008 C-39.30512292 104.56756393 -39.58385326 106.47320515 -39.86206055 108.37890625 C-40.37109375 111.29296875 -40.37109375 111.29296875 -41.37109375 113.29296875 C-10.68109375 113.29296875 20.00890625 113.29296875 51.62890625 113.29296875 C50.95747724 121.35011688 50.13960738 129.13640002 48.81640625 137.078125 C48.55573364 138.67339272 48.55573364 138.67339272 48.28979492 140.30088806 C47.92556817 142.52379359 47.55909131 144.74633154 47.19042969 146.96850586 C46.62530289 150.37720327 46.06797985 153.78711134 45.51171875 157.19726562 C45.15540132 159.36595996 44.7986464 161.53458247 44.44140625 163.703125 C44.19136841 165.23115501 44.19136841 165.23115501 43.9362793 166.79005432 C43.7794165 167.73211227 43.62255371 168.67417023 43.4609375 169.64477539 C43.32405518 170.47239883 43.18717285 171.30002228 43.04614258 172.15272522 C42.62890625 174.29296875 42.62890625 174.29296875 41.62890625 177.29296875 C10.93890625 177.62296875 -19.75109375 177.95296875 -51.37109375 178.29296875 C-53.129375 189.51296875 -54.88765625 200.73296875 -56.69921875 212.29296875 C-57.81951741 219.42069921 -58.94018334 226.54836874 -60.0625 233.67578125 C-61.8419558 244.97687986 -63.61995204 256.27819367 -65.38818359 267.58105469 C-66.67631983 275.81501284 -67.96961036 284.04814259 -69.26891589 292.28034592 C-69.95574106 296.63310454 -70.64010137 300.98621643 -71.31827545 305.34033203 C-71.95874608 309.45183967 -72.60618532 313.56219336 -73.25862694 317.67181778 C-73.49490326 319.16760416 -73.72878909 320.6637708 -73.95988655 322.16036606 C-76.03017995 335.5510062 -78.3648998 349.2421525 -84.12109375 361.60546875 C-84.63651733 362.7337207 -84.63651733 362.7337207 -85.16235352 363.88476562 C-88.17941088 370.2775467 -91.81875979 375.87352356 -96.37109375 381.29296875 C-97.40169922 382.54787109 -97.40169922 382.54787109 -98.453125 383.828125 C-119.17387277 407.9836634 -148.90354456 420.35168814 -180.1769104 423.0892334 C-186.1175989 423.46814974 -192.05736934 423.41426047 -198.0078125 423.390625 C-199.38214567 423.38875483 -200.75647952 423.38733377 -202.1308136 423.38633728 C-205.7096447 423.38255917 -209.28843379 423.37277038 -212.86724854 423.3616333 C-216.53454012 423.35131671 -220.20183864 423.34681793 -223.86914062 423.34179688 C-231.03647727 423.3311428 -238.20377958 423.31412457 -245.37109375 423.29296875 C-244.81693291 415.64171405 -243.99939117 408.10373735 -242.77734375 400.53125 C-242.62575806 399.57397507 -242.47417236 398.61670013 -242.31799316 397.63041687 C-242.00078266 395.63453205 -241.68139139 393.63899265 -241.35986328 391.64379883 C-240.86625267 388.57537524 -240.38193397 385.50557868 -239.8984375 382.43554688 C-239.58778697 380.48819385 -239.2766088 378.5409249 -238.96484375 376.59375 C-238.82002563 375.67410965 -238.67520752 374.7544693 -238.52600098 373.80696106 C-238.32073792 372.54380318 -238.32073792 372.54380318 -238.11132812 371.25512695 C-237.99221069 370.51188675 -237.87309326 369.76864655 -237.75036621 369.00288391 C-237.37109375 367.29296875 -237.37109375 367.29296875 -236.37109375 366.29296875 C-234.70583531 366.18560776 -233.03610788 366.14672773 -231.36743164 366.13525391 C-229.76424828 366.11986069 -229.76424828 366.11986069 -228.12867737 366.10415649 C-226.37888832 366.0932045 -226.37888832 366.0932045 -224.59375 366.08203125 C-222.1360613 366.0539403 -219.67837911 366.02527572 -217.22070312 365.99609375 C-213.33683609 365.9549765 -209.45308753 365.91810175 -205.5690918 365.89160156 C-201.82705304 365.86383844 -198.08557128 365.81793919 -194.34375 365.76953125 C-192.62128807 365.76465195 -192.62128807 365.76465195 -190.86402893 365.75967407 C-179.34270698 365.58570866 -170.8991131 362.67333885 -161.37109375 356.29296875 C-160.44296875 355.67421875 -159.51484375 355.05546875 -158.55859375 354.41796875 C-149.55441697 345.67105417 -147.1067424 332.67934122 -145.28515625 320.72265625 C-145.10672684 319.60688705 -144.92829742 318.49111786 -144.74446106 317.34153748 C-144.15183565 313.61849778 -143.57396342 309.89332491 -142.99609375 306.16796875 C-142.57641535 303.51313251 -142.1559202 300.8584356 -141.73461914 298.20385742 C-140.40241373 289.78962528 -139.09187309 281.37206483 -137.7844162 272.9539566 C-137.35166631 270.16789403 -136.91857224 267.38188512 -136.4854126 264.59588623 C-135.69788003 259.53028482 -134.91073672 254.46462302 -134.12377167 249.39893341 C-133.80241238 247.33043961 -133.48100655 245.26195305 -133.15955353 243.19347382 C-131.56518159 232.93382899 -129.97201798 222.67401552 -128.39139652 212.41224194 C-127.79656372 208.55244028 -127.1997972 204.69293899 -126.60272789 200.83348274 C-126.3225716 199.019109 -126.04335466 197.20458995 -125.76511574 195.38992119 C-125.38277833 192.89670538 -124.99729316 190.40399548 -124.61108398 187.91137695 C-124.49945734 187.17786955 -124.3878307 186.44436214 -124.27282143 185.68862724 C-123.81914544 182.77820446 -123.3048814 180.0943317 -122.37109375 177.29296875 C-144.81109375 177.29296875 -167.25109375 177.29296875 -190.37109375 177.29296875 C-187.38435826 158.35435052 -187.38435826 158.35435052 -185.96875 149.41015625 C-185.01044076 143.35405206 -184.05877771 137.29700739 -183.1171875 131.23828125 C-182.76434122 128.98567422 -182.41147811 126.73306982 -182.05859375 124.48046875 C-181.8997168 123.44543213 -181.74083984 122.41039551 -181.57714844 121.34399414 C-181.35720215 119.9478186 -181.35720215 119.9478186 -181.1328125 118.5234375 C-181.00865967 117.72317139 -180.88450684 116.92290527 -180.7565918 116.09838867 C-180.37109375 114.29296875 -180.37109375 114.29296875 -179.37109375 113.29296875 C-177.25428058 113.19875135 -175.13428617 113.17554114 -173.01538086 113.17944336 C-172.35199203 113.17929733 -171.68860321 113.17915131 -171.00511169 113.17900085 C-168.80285419 113.17969994 -166.6006803 113.1874921 -164.3984375 113.1953125 C-162.87529039 113.19717669 -161.35214268 113.19860059 -159.82899475 113.19960022 C-155.81271724 113.20342529 -151.79647567 113.21325547 -147.7802124 113.2243042 C-143.68486009 113.23451856 -139.58950199 113.23909789 -135.49414062 113.24414062 C-127.45310847 113.25487775 -119.41210558 113.27195403 -111.37109375 113.29296875 C-111.31068909 112.4367392 -111.25028442 111.58050964 -111.18804932 110.69833374 C-109.12278539 82.48706721 -104.30871115 55.26060493 -85.37109375 33.29296875 C-84.55898438 32.26429687 -84.55898438 32.26429687 -83.73046875 31.21484375 C-72.22667856 17.03055875 -53.85652957 7.70618173 -36.37109375 3.29296875 C-35.40026352 3.04417969 -34.42943329 2.79539063 -33.42918396 2.5390625 C-22.24904547 -0.01658788 -11.42794861 -0.09439683 0 0 Z " fill="#004DFE" transform="translate(337.37109375,38.70703125)"/>
</svg>
